<svg width="109" height="24" xmlns="http://www.w3.org/2000/svg">
 <title>Logo</title>
 <defs>
  <path d="m22.735001,23.171c0.282999,0.323 0.052999,0.829 -0.376001,0.829l-5.907,0c-0.285,0 -0.556,-0.121 -0.745,-0.333l-9.414,-10.526l0,10.36c0,0.276001 -0.224,0.5 -0.5,0.5l-5.293,0c-0.276,0 -0.5,-0.223999 -0.5,-0.5l0,-22.999999c0,-0.276 0.224,-0.5 0.5,-0.5l5.293,0c0.276,0 0.5,0.224 0.5,0.5l0,9.815l9.141,-9.99c0.19,-0.207 0.457,-0.325 0.738001,-0.325l5.761999,0c0.437,0 0.664,0.521 0.365999,0.841l-9.850999,10.563l10.287,11.767001l-0.000999,-0.001001z" id="b"/>
  <path d="m45.991001,24c-0.199001,0 -0.380001,-0.118 -0.459,-0.301001l-2.024002,-4.668999l-10.669998,0l-2.024002,4.668999c-0.078999,0.183001 -0.258999,0.301001 -0.459,0.301001l-5.212,0c-0.365999,0 -0.608,-0.381001 -0.452999,-0.712l10.782,-23c0.082001,-0.176 0.258999,-0.288 0.452999,-0.288l4.358002,0c0.194,0 0.369999,0.112 0.452999,0.287l10.814999,23.000001c0.156002,0.331999 -0.085999,0.712999 -0.452,0.712999l-5.107998,0zm-11.135002,-9.668l6.635002,0l-3.317001,-7.694l-3.317001,7.694l-0.000999,0z" id="c"/>
  <path d="m55.525002,24c-0.276001,0 -0.5,-0.224001 -0.5,-0.5l0,-23c0,-0.276 0.223999,-0.5 0.5,-0.5l5.292999,0c0.276001,0 0.5,0.224 0.5,0.5l0,18.427999l9.759003,0c0.275993,0 0.5,0.224001 0.5,0.5l0,4.072001c0,0.275999 -0.224007,0.5 -0.5,0.5l-15.552002,0z" id="d"/>
  <path d="m75.278999,0.5c0,-0.276 0.223999,-0.5 0.5,-0.5l9.315002,0c2.667,0 4.959,0.477 6.874001,1.43c1.937996,0.953 3.419998,2.338 4.445999,4.153c1.026001,1.793 1.539001,3.926 1.539001,6.4c0,2.496 -0.513,4.652 -1.539001,6.468c-1.002998,1.792999 -2.473999,3.166 -4.412003,4.118999c-1.915001,0.953001 -4.218002,1.43 -6.907997,1.43l-9.315002,0c-0.276001,0 -0.5,-0.224001 -0.5,-0.5l0,-23zm9.370003,18.462c2.370995,0 4.138,-0.579 5.300995,-1.736c1.163002,-1.157 1.744003,-2.905 1.744003,-5.242c0,-2.338 -0.581001,-4.074 -1.744003,-5.209c-1.162994,-1.157 -2.93,-1.736 -5.300995,-1.736l-3.078003,0l0,13.923l3.078003,0z" id="e"/>
  <path d="m102.913002,24c-0.276001,0 -0.5,-0.224001 -0.5,-0.5l0,-23c0,-0.276 0.223999,-0.5 0.5,-0.5l5.292999,0c0.276001,0 0.5,0.224 0.5,0.5l0,23c0,0.275999 -0.223999,0.5 -0.5,0.5l-5.292999,0z" id="f"/>
 </defs>
 <g>
  <title>background</title>
  <rect height="402" width="582" y="-1" x="-1" fill="none" id="canvas_background"/>
 </g>
 <g>
  <title>Layer 1</title>
  <text xml:space="preserve" y="21.32" x="4.17" text-anchor="start" stroke-width="0" stroke="#000" fill="#7f7f7f" style="cursor: move; pointer-events: inherit;" font-weight="bold" font-size="NaN" font-family="Euphoria,sans-serif" id="svg_8">Spot G</text>
  <path d="m111.537346,14.270942c-1.177879,-0.259558 -2.40358,-0.430374 -3.400291,-0.476693l-0.175011,-0.007619c0.04039,-0.115696 0.070358,-0.194135 0.080757,-0.205649c0.021019,-0.023292 0.03894,-0.120835 0.04039,-0.215955c0,-0.052696 0.018021,-0.223541 0.044914,-0.449767c0.270912,0.012727 0.628578,0.023029 1.019157,0.026955c1.507065,0.015439 3.084465,0.174769 4.166588,0.425266c0.643555,0.149287 0.856087,0.144151 0.381592,-0.00759c-0.481888,-0.152953 -1.909561,-0.377707 -3.048569,-0.47551c-0.763168,-0.068165 -1.858772,-0.093879 -2.503723,-0.079679c0.017921,-0.146575 0.038818,-0.309571 0.062836,-0.476751c0.091255,-0.646356 0.121246,-1.296636 0.122673,-2.590848c0.001549,-2.007232 -0.080757,-2.559709 -0.579117,-3.887253c-0.203568,-0.542434 -0.432564,-1.002476 -0.710899,-1.418682c0.242493,-0.937081 0.236343,-2.38791 -0.013496,-3.660046c-0.208084,-1.043456 -0.279839,-1.110351 -1.00267,-0.909867c-0.612137,0.170846 -1.101563,0.403478 -1.730141,0.818702c-0.297806,0.196588 -0.707787,0.502436 -1.004227,0.742658c-0.775185,-0.357361 -1.577347,-0.59363 -2.432007,-0.720841c-0.866585,-0.128682 -2.993195,-0.056621 -3.747459,0.125739c-0.736244,0.178667 -1.400749,0.397303 -2.002472,0.656861c-0.299324,-0.242906 -0.734749,-0.570572 -1.046051,-0.776221c-0.631569,-0.416464 -1.122459,-0.647856 -1.736168,-0.818702c-0.719734,-0.201724 -0.794563,-0.133588 -0.999619,0.909867c-0.255836,1.289047 -0.257385,2.764377 -0.005974,3.698516c0.029869,0.106634 0.047859,0.18262 0.053833,0.241665c-1.022102,1.685885 -1.354401,3.572515 -1.132927,6.205758c0.056862,0.686094 0.14669,1.315798 0.271011,1.892776c-0.652657,-0.005137 -1.580559,0.025743 -2.249489,0.082363c-1.140335,0.099045 -2.568214,0.321345 -3.050049,0.474298c-0.474365,0.151481 -0.263428,0.156617 0.381607,0.00883c1.082077,-0.249284 2.661003,-0.411067 4.166595,-0.425266c0.284294,-0.001241 0.550682,-0.00909 0.779724,-0.01668c0.067261,0.304433 0.146622,0.594899 0.23645,0.87114l-0.007523,0.001472c-0.995193,0.044847 -2.220879,0.215663 -3.398674,0.475481c-0.883156,0.193904 -2.188049,0.582172 -2.340714,0.693944c-0.158638,0.116907 -0.028458,0.091166 0.655449,-0.136301c1.248138,-0.413752 2.871925,-0.731173 4.883484,-0.952232l0.224419,-0.025743c0.431,1.313288 1.095421,2.31582 2.035408,3.097005c0.574707,0.479435 1.496552,0.971628 1.960411,1.048826c0.12719,0.020605 0.498383,0.120602 0.823181,0.220829c0.326332,0.100256 0.965309,0.250755 1.418724,0.336784l0.010551,0c-0.009003,0.007849 -0.016525,0.012756 -0.023895,0.020605c-0.549286,0.374043 -0.906914,0.956186 -1.147858,1.872431c-0.10775,0.042393 -0.240944,0.100227 -0.386292,0.16568c-0.519279,0.23139 -0.721252,0.27895 -1.246552,0.284088c-0.546272,0.005165 -0.674927,-0.025743 -1.00132,-0.226227c-0.472816,-0.289253 -0.914391,-0.821154 -1.209145,-1.455996c-0.490913,-1.061548 -1.340965,-1.812088 -2.04882,-1.812088c-0.60463,0 -0.719902,0.321348 -0.282944,0.79048c0.659981,0.705429 1.152466,1.425087 1.354469,1.975111c0.11364,0.308359 0.287323,0.785339 0.38903,1.058895c0.106377,0.291677 0.335373,0.687538 0.552246,0.961353c0.513412,0.639948 1.007317,0.945854 1.745125,1.089745c0.493835,0.095091 0.615128,0.095091 1.198761,-0.002712c0.281281,-0.044847 0.519279,-0.097544 0.731888,-0.162996c0,0.313496 0,0.674551 0,1.098606c0,2.269531 -0.021019,2.999434 -0.089828,3.212702c-0.128754,0.406134 -0.419189,0.823811 -0.70195,1.011566c-0.281403,0.187527 -0.368134,0.394417 -0.249985,0.584597c0.065933,0.102711 0.193085,0.120863 0.6166,0.084818c0.806618,-0.065453 1.376991,-0.456146 1.667274,-1.144924c0.092773,-0.221088 0.113724,-0.66572 0.143661,-2.978859c0.031418,-2.509926 0.044914,-2.75136 0.170586,-3.109962c0.074783,-0.213266 0.184082,-0.444662 0.243988,-0.50766c0.103157,-0.110531 0.109131,0.107874 0.109131,3.109993c-0.001381,3.31296 -0.026825,3.712482 -0.279716,4.350037c-0.056862,0.145103 -0.164627,0.334072 -0.239563,0.424025c-0.133194,0.158119 -0.188446,0.562811 -0.095802,0.685116c0.151268,0.1978 0.912888,-0.113243 1.32901,-0.542437c0.707993,-0.735096 0.79319,-1.342983 0.799164,-5.732729l0.003082,-2.57538l0.214035,0.026955l0.2155,0.025742l0.034431,3.36808c0.040352,3.792393 0.046326,3.847803 0.538696,4.580187c0.279953,0.413752 0.561256,0.642462 1.01918,0.821157c0.613686,0.241665 0.797768,-0.131136 0.386238,-0.777523c-0.449074,-0.702976 -0.470024,-0.971394 -0.446129,-5.132664c0.016525,-2.667816 0.016525,-2.667816 0.148323,-2.512409c0.276787,0.329197 0.329224,0.868946 0.329224,3.370792c0,3.10754 0.067261,3.403143 0.905365,3.945347c0.392036,0.250496 0.501335,0.281374 1.002815,0.284088c0.532776,0.002453 0.56562,-0.007851 0.585091,-0.19021c0.016495,-0.147816 -0.0494,-0.248072 -0.297867,-0.447344c-0.326164,-0.263483 -0.553612,-0.600037 -0.695839,-1.02409c-0.053925,-0.163227 -0.089828,-1.232395 -0.113724,-3.433764c-0.036003,-3.075449 -0.043526,-3.215387 -0.190056,-3.697304c-0.197578,-0.647596 -0.498398,-1.159151 -0.880058,-1.498388c-0.098801,-0.084787 -0.197578,-0.155638 -0.326248,-0.208334c0.157089,-0.020346 0.311302,-0.042393 0.459442,-0.070589c1.541565,-0.268648 2.357201,-0.492161 3.011139,-0.823809c1.382828,-0.697842 2.319763,-1.856994 2.825546,-3.500485c0.046432,-0.146574 0.091347,-0.285299 0.128738,-0.397042l0.39061,0.042395c2.01149,0.222301 3.635132,0.539721 4.883415,0.954684c0.685501,0.227468 0.815598,0.25445 0.655502,0.13506c-0.149658,-0.109318 -1.453316,-0.496115 -2.336205,-0.690249zm-5.899559,-0.03971c-0.227448,0.657899 -0.865028,1.503554 -1.379868,1.835173c-0.508759,0.328964 -1.305008,0.57946 -2.207535,0.699081c-0.616508,0.082104 -4.057327,0.106634 -4.625946,0.033333c-1.879608,-0.241667 -2.933319,-0.715733 -3.71003,-1.665541c-0.734779,-0.902046 -1.079048,-2.126854 -1.019241,-3.634304c0.03894,-0.943199 0.212555,-1.535647 0.66597,-2.255276c0.413124,-0.655416 0.848656,-1.060108 1.360458,-1.265757c0.42794,-0.172317 1.743507,-0.187757 3.512558,-0.038498c0.781242,0.065452 1.427742,0.065452 2.207451,0c1.849762,-0.152953 3.084534,-0.136272 3.540977,0.0488c0.716858,0.290437 1.370895,1.071623 1.762955,2.112596c0.176559,0.465238 0.211006,0.663037 0.23645,1.381482c0.034363,0.989518 -0.095886,2.040823 -0.3442,2.74891zm-9.326759,-4.248541c-1.052193,-0.241665 -1.653748,2.119032 -0.84716,3.324502c0.384743,0.571843 0.72438,0.665693 1.15094,0.318664c0.393608,-0.322589 0.607559,-0.925338 0.607559,-1.706493c0,-1.042243 -0.362061,-1.808221 -0.911339,-1.936672zm6.387444,0.141208c-1.052094,-0.241464 -1.653709,2.116549 -0.847092,3.323491c0.384674,0.571844 0.72438,0.666934 1.150871,0.317423c0.393608,-0.321347 0.607742,-0.925309 0.607742,-1.706724c0,-1.038319 -0.36219,-1.806748 -0.911522,-1.93419zm-2.830063,4.641946c-0.022484,0.095091 -0.131783,0.236298 -0.243904,0.312284c-0.279884,0.188738 -0.481888,0.123286 -0.778351,-0.230179c-0.182533,-0.217164 -0.266388,-0.331388 -0.321701,-0.103922c-0.052437,0.210555 0.273895,0.633368 0.525253,0.763292c0.232079,0.120832 0.398102,0.124497 0.649529,-0.012987c0.248466,-0.136041 0.46698,-0.502493 0.46698,-0.740003c0,-0.221088 -0.242493,-0.210814 -0.297806,0.011515zm-0.311302,-0.739021c0.160049,-0.185043 0.19603,-0.565466 0.043365,-0.76719s-0.463829,-0.170846 -0.585075,0.055409c-0.14225,0.264726 -0.065918,0.466451 0.034309,0.680902c0.157158,0.15933 0.368233,0.191422 0.507401,0.030879z" stroke-width="1.5" stroke="#000" fill="#7f7f7f" id="svg_9"/>
 </g>
</svg>